<svg xmlns="http://www.w3.org/2000/svg" width="192" height="192" viewBox="0 0 192 192">
  <defs>
    <linearGradient id="bg" x1="0" y1="0" x2="192" y2="192" gradientUnits="userSpaceOnUse">
      <stop offset="0%" stop-color="#007AFF"/>
      <stop offset="100%" stop-color="#0056CC"/>
    </linearGradient>
  </defs>
  <rect width="192" height="192" rx="32" fill="url(#bg)"/>
  <g fill="none" stroke="#FFFFFF" stroke-width="6" stroke-linecap="round" stroke-linejoin="round">
    <!-- Book spine -->
    <path d="M64 48 L64 144"/>
    <!-- Book pages -->
    <path d="M64 48 C74 52, 84 48, 96 52 C108 48, 118 52, 128 48 L128 144 C118 148, 108 144, 96 148 C84 144, 74 148, 64 144"/>
    <!-- Line on left page -->
    <line x1="72" y1="72" x2="88" y2="72"/>
    <line x1="72" y1="84" x2="88" y2="84"/>
    <line x1="72" y1="96" x2="88" y2="96"/>
    <!-- Line on right page -->
    <line x1="104" y1="72" x2="120" y2="72"/>
    <line x1="104" y1="84" x2="120" y2="84"/>
    <line x1="104" y1="96" x2="120" y2="96"/>
    <!-- Checkmark -->
    <path d="M104 112 L112 120 L124 104"/>
  </g>
</svg>
