<svg xmlns="http://www.w3.org/2000/svg" width="512" height="512" viewBox="0 0 512 512">
  <defs>
    <linearGradient id="bg" x1="0" y1="0" x2="512" y2="512" gradientUnits="userSpaceOnUse">
      <stop offset="0%" stop-color="#007AFF"/>
      <stop offset="100%" stop-color="#0056CC"/>
    </linearGradient>
  </defs>
  <rect width="512" height="512" rx="64" fill="url(#bg)"/>
  <g fill="none" stroke="#FFFFFF" stroke-width="12" stroke-linecap="round" stroke-linejoin="round">
    <!-- Book spine -->
    <path d="M160 128 L160 384"/>
    <!-- Book pages -->
    <path d="M160 128 C180 136, 210 128, 256 136 C302 128, 332 136, 352 128 L352 384 C332 392, 302 384, 256 392 C210 384, 180 392, 160 384"/>
    <!-- Lines on left page -->
    <line x1="184" y1="192" x2="232" y2="192"/>
    <line x1="184" y1="216" x2="232" y2="216"/>
    <line x1="184" y1="240" x2="232" y2="240"/>
    <line x1="184" y1="264" x2="232" y2="264"/>
    <!-- Lines on right page -->
    <line x1="280" y1="192" x2="328" y2="192"/>
    <line x1="280" y1="216" x2="328" y2="216"/>
    <line x1="280" y1="240" x2="328" y2="240"/>
    <!-- Checkmark -->
    <path d="M280 300 L300 324 L340 280"/>
  </g>
</svg>
